<mxfile host="app.diagrams.net" modified="2023-05-03T18:23:00.998Z" agent="Mozilla/5.0 (Windows NT 10.0; Win64; x64; rv:109.0) Gecko/20100101 Firefox/113.0" etag="Q56d69VNc6CyG4deAdBZ" version="21.2.3">
  <diagram name="Page-1" id="AlQgFYiAesxGKjzgry_K">
    <mxGraphModel dx="2074" dy="1106" grid="1" gridSize="10" guides="1" tooltips="1" connect="1" arrows="1" fold="1" page="1" pageScale="1" pageWidth="827" pageHeight="1169" math="0" shadow="0">
      <root>
        <mxCell id="0" />
        <mxCell id="1" parent="0" />
        <mxCell id="VzBomBVX7HgXpCq8d6OW-4" value="Ajout d&#39;un plat du jour" style="text;html=1;align=center;verticalAlign=middle;resizable=0;points=[];autosize=1;strokeColor=none;fillColor=none;strokeWidth=1;fontStyle=1;fontSize=16;" vertex="1" parent="1">
          <mxGeometry x="318" y="50" width="190" height="30" as="geometry" />
        </mxCell>
        <mxCell id="VzBomBVX7HgXpCq8d6OW-14" value="Le chef souhaite ajouter un nouveau plat du jour." style="text;html=1;align=center;verticalAlign=middle;resizable=0;points=[];autosize=1;strokeColor=none;fillColor=none;" vertex="1" parent="1">
          <mxGeometry x="268" y="80" width="290" height="30" as="geometry" />
        </mxCell>
        <mxCell id="VzBomBVX7HgXpCq8d6OW-28" value=":Application" style="shape=umlLifeline;perimeter=lifelinePerimeter;whiteSpace=wrap;html=1;container=1;dropTarget=0;collapsible=0;recursiveResize=0;outlineConnect=0;portConstraint=eastwest;newEdgeStyle={&quot;edgeStyle&quot;:&quot;elbowEdgeStyle&quot;,&quot;elbow&quot;:&quot;vertical&quot;,&quot;curved&quot;:0,&quot;rounded&quot;:0};" vertex="1" parent="1">
          <mxGeometry x="560" y="200" width="100" height="610" as="geometry" />
        </mxCell>
        <mxCell id="VzBomBVX7HgXpCq8d6OW-30" value="" style="html=1;points=[];perimeter=orthogonalPerimeter;outlineConnect=0;targetShapes=umlLifeline;portConstraint=eastwest;newEdgeStyle={&quot;edgeStyle&quot;:&quot;elbowEdgeStyle&quot;,&quot;elbow&quot;:&quot;vertical&quot;,&quot;curved&quot;:0,&quot;rounded&quot;:0};" vertex="1" parent="VzBomBVX7HgXpCq8d6OW-28">
          <mxGeometry x="45" y="80" width="10" height="80" as="geometry" />
        </mxCell>
        <mxCell id="VzBomBVX7HgXpCq8d6OW-47" value="" style="html=1;points=[];perimeter=orthogonalPerimeter;outlineConnect=0;targetShapes=umlLifeline;portConstraint=eastwest;newEdgeStyle={&quot;edgeStyle&quot;:&quot;elbowEdgeStyle&quot;,&quot;elbow&quot;:&quot;vertical&quot;,&quot;curved&quot;:0,&quot;rounded&quot;:0};" vertex="1" parent="VzBomBVX7HgXpCq8d6OW-28">
          <mxGeometry x="45" y="240" width="10" height="80.2" as="geometry" />
        </mxCell>
        <mxCell id="VzBomBVX7HgXpCq8d6OW-27" value=":Chef" style="shape=umlLifeline;perimeter=lifelinePerimeter;whiteSpace=wrap;html=1;container=1;dropTarget=0;collapsible=0;recursiveResize=0;outlineConnect=0;portConstraint=eastwest;newEdgeStyle={&quot;edgeStyle&quot;:&quot;elbowEdgeStyle&quot;,&quot;elbow&quot;:&quot;vertical&quot;,&quot;curved&quot;:0,&quot;rounded&quot;:0};" vertex="1" parent="1">
          <mxGeometry x="180" y="200" width="100" height="610" as="geometry" />
        </mxCell>
        <mxCell id="VzBomBVX7HgXpCq8d6OW-33" value="" style="html=1;points=[];perimeter=orthogonalPerimeter;outlineConnect=0;targetShapes=umlLifeline;portConstraint=eastwest;newEdgeStyle={&quot;edgeStyle&quot;:&quot;elbowEdgeStyle&quot;,&quot;elbow&quot;:&quot;vertical&quot;,&quot;curved&quot;:0,&quot;rounded&quot;:0};" vertex="1" parent="VzBomBVX7HgXpCq8d6OW-27">
          <mxGeometry x="45" y="80" width="10" height="80" as="geometry" />
        </mxCell>
        <mxCell id="VzBomBVX7HgXpCq8d6OW-50" value="" style="html=1;points=[];perimeter=orthogonalPerimeter;outlineConnect=0;targetShapes=umlLifeline;portConstraint=eastwest;newEdgeStyle={&quot;edgeStyle&quot;:&quot;elbowEdgeStyle&quot;,&quot;elbow&quot;:&quot;vertical&quot;,&quot;curved&quot;:0,&quot;rounded&quot;:0};" vertex="1" parent="VzBomBVX7HgXpCq8d6OW-27">
          <mxGeometry x="45" y="240.2" width="10" height="80" as="geometry" />
        </mxCell>
        <mxCell id="VzBomBVX7HgXpCq8d6OW-64" value="" style="html=1;points=[];perimeter=orthogonalPerimeter;outlineConnect=0;targetShapes=umlLifeline;portConstraint=eastwest;newEdgeStyle={&quot;edgeStyle&quot;:&quot;elbowEdgeStyle&quot;,&quot;elbow&quot;:&quot;vertical&quot;,&quot;curved&quot;:0,&quot;rounded&quot;:0};" vertex="1" parent="VzBomBVX7HgXpCq8d6OW-27">
          <mxGeometry x="45" y="385.20000000000005" width="10" height="80" as="geometry" />
        </mxCell>
        <mxCell id="VzBomBVX7HgXpCq8d6OW-65" value="" style="html=1;points=[];perimeter=orthogonalPerimeter;outlineConnect=0;targetShapes=umlLifeline;portConstraint=eastwest;newEdgeStyle={&quot;edgeStyle&quot;:&quot;elbowEdgeStyle&quot;,&quot;elbow&quot;:&quot;vertical&quot;,&quot;curved&quot;:0,&quot;rounded&quot;:0};" vertex="1" parent="VzBomBVX7HgXpCq8d6OW-27">
          <mxGeometry x="425" y="385" width="10" height="80.2" as="geometry" />
        </mxCell>
        <mxCell id="VzBomBVX7HgXpCq8d6OW-66" value="EnregistrerPlatDuJour" style="html=1;verticalAlign=bottom;endArrow=open;dashed=1;endSize=8;edgeStyle=elbowEdgeStyle;elbow=vertical;curved=0;rounded=0;" edge="1" parent="VzBomBVX7HgXpCq8d6OW-27" source="VzBomBVX7HgXpCq8d6OW-65" target="VzBomBVX7HgXpCq8d6OW-64">
          <mxGeometry relative="1" as="geometry">
            <mxPoint x="160" y="460.20000000000005" as="targetPoint" />
            <Array as="points">
              <mxPoint x="140" y="465" />
            </Array>
          </mxGeometry>
        </mxCell>
        <mxCell id="VzBomBVX7HgXpCq8d6OW-67" value="SelectionnerPlatDuJour" style="html=1;verticalAlign=bottom;endArrow=block;edgeStyle=elbowEdgeStyle;elbow=vertical;curved=0;rounded=0;" edge="1" parent="VzBomBVX7HgXpCq8d6OW-27" source="VzBomBVX7HgXpCq8d6OW-64" target="VzBomBVX7HgXpCq8d6OW-65">
          <mxGeometry x="0.0009" relative="1" as="geometry">
            <mxPoint x="160" y="385.20000000000005" as="sourcePoint" />
            <mxPoint x="210" y="385" as="targetPoint" />
            <Array as="points">
              <mxPoint x="130" y="385" />
            </Array>
            <mxPoint as="offset" />
          </mxGeometry>
        </mxCell>
        <mxCell id="VzBomBVX7HgXpCq8d6OW-68" value="" style="html=1;points=[];perimeter=orthogonalPerimeter;outlineConnect=0;targetShapes=umlLifeline;portConstraint=eastwest;newEdgeStyle={&quot;edgeStyle&quot;:&quot;elbowEdgeStyle&quot;,&quot;elbow&quot;:&quot;vertical&quot;,&quot;curved&quot;:0,&quot;rounded&quot;:0};" vertex="1" parent="VzBomBVX7HgXpCq8d6OW-27">
          <mxGeometry x="45" y="510.20000000000005" width="10" height="80" as="geometry" />
        </mxCell>
        <mxCell id="VzBomBVX7HgXpCq8d6OW-69" value="" style="html=1;points=[];perimeter=orthogonalPerimeter;outlineConnect=0;targetShapes=umlLifeline;portConstraint=eastwest;newEdgeStyle={&quot;edgeStyle&quot;:&quot;elbowEdgeStyle&quot;,&quot;elbow&quot;:&quot;vertical&quot;,&quot;curved&quot;:0,&quot;rounded&quot;:0};" vertex="1" parent="VzBomBVX7HgXpCq8d6OW-27">
          <mxGeometry x="425" y="510" width="10" height="80.2" as="geometry" />
        </mxCell>
        <mxCell id="VzBomBVX7HgXpCq8d6OW-70" value="EnregistrerPlatDuJour" style="html=1;verticalAlign=bottom;endArrow=open;dashed=1;endSize=8;edgeStyle=elbowEdgeStyle;elbow=vertical;curved=0;rounded=0;" edge="1" parent="VzBomBVX7HgXpCq8d6OW-27" source="VzBomBVX7HgXpCq8d6OW-69" target="VzBomBVX7HgXpCq8d6OW-68">
          <mxGeometry relative="1" as="geometry">
            <mxPoint x="160" y="585.2" as="targetPoint" />
            <Array as="points">
              <mxPoint x="140" y="590" />
            </Array>
          </mxGeometry>
        </mxCell>
        <mxCell id="VzBomBVX7HgXpCq8d6OW-71" value="CrÃ©erPlatDuJour" style="html=1;verticalAlign=bottom;endArrow=block;edgeStyle=elbowEdgeStyle;elbow=vertical;curved=0;rounded=0;" edge="1" parent="VzBomBVX7HgXpCq8d6OW-27" source="VzBomBVX7HgXpCq8d6OW-68" target="VzBomBVX7HgXpCq8d6OW-69">
          <mxGeometry x="0.0009" relative="1" as="geometry">
            <mxPoint x="160" y="510.20000000000005" as="sourcePoint" />
            <mxPoint x="210" y="510" as="targetPoint" />
            <Array as="points">
              <mxPoint x="130" y="510" />
            </Array>
            <mxPoint as="offset" />
          </mxGeometry>
        </mxCell>
        <mxCell id="VzBomBVX7HgXpCq8d6OW-31" value="Connexion au tableau de bord" style="html=1;verticalAlign=bottom;endArrow=block;edgeStyle=elbowEdgeStyle;elbow=vertical;curved=0;rounded=0;" edge="1" target="VzBomBVX7HgXpCq8d6OW-30" parent="1" source="VzBomBVX7HgXpCq8d6OW-33">
          <mxGeometry relative="1" as="geometry">
            <mxPoint x="280" y="320" as="sourcePoint" />
            <Array as="points">
              <mxPoint x="310" y="280" />
              <mxPoint x="430" y="320" />
            </Array>
          </mxGeometry>
        </mxCell>
        <mxCell id="VzBomBVX7HgXpCq8d6OW-32" value="Interface administratif" style="html=1;verticalAlign=bottom;endArrow=open;dashed=1;endSize=8;edgeStyle=elbowEdgeStyle;elbow=vertical;curved=0;rounded=0;" edge="1" source="VzBomBVX7HgXpCq8d6OW-30" parent="1" target="VzBomBVX7HgXpCq8d6OW-33">
          <mxGeometry relative="1" as="geometry">
            <mxPoint x="280" y="395" as="targetPoint" />
            <Array as="points">
              <mxPoint x="350" y="360" />
              <mxPoint x="240" y="400" />
            </Array>
          </mxGeometry>
        </mxCell>
        <mxCell id="VzBomBVX7HgXpCq8d6OW-49" value="AfficherGestionPlatsDuJour" style="html=1;verticalAlign=bottom;endArrow=open;dashed=1;endSize=8;edgeStyle=elbowEdgeStyle;elbow=vertical;curved=0;rounded=0;" edge="1" source="VzBomBVX7HgXpCq8d6OW-47" parent="1" target="VzBomBVX7HgXpCq8d6OW-50">
          <mxGeometry relative="1" as="geometry">
            <mxPoint x="340" y="515.2" as="targetPoint" />
            <Array as="points">
              <mxPoint x="320" y="520" />
            </Array>
          </mxGeometry>
        </mxCell>
        <mxCell id="VzBomBVX7HgXpCq8d6OW-48" value="ConsulterGestionPlatsDuJour" style="html=1;verticalAlign=bottom;endArrow=block;edgeStyle=elbowEdgeStyle;elbow=vertical;curved=0;rounded=0;" edge="1" target="VzBomBVX7HgXpCq8d6OW-47" parent="1" source="VzBomBVX7HgXpCq8d6OW-50">
          <mxGeometry x="0.0009" relative="1" as="geometry">
            <mxPoint x="340" y="440.2" as="sourcePoint" />
            <mxPoint x="390" y="440" as="targetPoint" />
            <Array as="points">
              <mxPoint x="310" y="440" />
            </Array>
            <mxPoint as="offset" />
          </mxGeometry>
        </mxCell>
        <mxCell id="VzBomBVX7HgXpCq8d6OW-53" value="Alternative" style="shape=umlFrame;whiteSpace=wrap;html=1;pointerEvents=0;" vertex="1" parent="1">
          <mxGeometry x="138" y="540" width="550" height="280" as="geometry" />
        </mxCell>
        <mxCell id="VzBomBVX7HgXpCq8d6OW-55" value="" style="endArrow=none;dashed=1;html=1;rounded=0;exitX=0.001;exitY=0.5;exitDx=0;exitDy=0;exitPerimeter=0;entryX=1;entryY=0.499;entryDx=0;entryDy=0;entryPerimeter=0;" edge="1" parent="1" source="VzBomBVX7HgXpCq8d6OW-53" target="VzBomBVX7HgXpCq8d6OW-53">
          <mxGeometry width="50" height="50" relative="1" as="geometry">
            <mxPoint x="760" y="630" as="sourcePoint" />
            <mxPoint x="810" y="580" as="targetPoint" />
          </mxGeometry>
        </mxCell>
        <mxCell id="VzBomBVX7HgXpCq8d6OW-72" value="&lt;div&gt;SI&lt;/div&gt;&lt;div&gt;le plat&lt;/div&gt;&lt;div&gt;existe dÃ©jÃ &lt;/div&gt;" style="text;html=1;align=center;verticalAlign=middle;resizable=0;points=[];autosize=1;strokeColor=none;fillColor=none;fontStyle=1" vertex="1" parent="1">
          <mxGeometry x="130" y="593" width="90" height="60" as="geometry" />
        </mxCell>
        <mxCell id="VzBomBVX7HgXpCq8d6OW-73" value="SINON" style="text;html=1;align=center;verticalAlign=middle;resizable=0;points=[];autosize=1;strokeColor=none;fillColor=none;fontStyle=1" vertex="1" parent="1">
          <mxGeometry x="145" y="738" width="60" height="30" as="geometry" />
        </mxCell>
      </root>
    </mxGraphModel>
  </diagram>
</mxfile>
